# xmcd CD database file
#
# Track frame offsets:
#	150
#	14775
#	26143
#	42090
#	57770
#	72933
#	88328
#	103568
#	114835
#	127718
#	140108
#	155363
#	168478
#	185785
#	205035
#	219403
#	233198
#	247995
#	263090
#	278095
#	295915
#	311980
#
# Disc length: 4335 seconds
#
# Revision: 0
# Processed by: cddbd v1.5.2PL0 Copyright (c) Steve Scherf et al.
# Submitted via: CDex 1.70beta2
#
DISCID=4410ed16
DTITLE=ChartBreakers - ChartBreakers CGC-515
DYEAR=1900
DGENRE=Country
TTITLE0=Garth Brooks - Somewhere Other Than The Night
TTITLE1=Alan Jackson - She's GotThe Rhythm (And I Got The Blues)
TTITLE2=Hal Ketchum - Sure Love
TTITLE3=Ricky Van Shelton - I Am A Simple Man
TTITLE4=Shenandoah - Next To You, Next To Me
TTITLE5=Doug Stone - I'd Be Better Off (In A Pine Box)
TTITLE6=George Strait - All My Ex's Live In Texas
TTITLE7=Marty Stuart - Till I Found You
TTITLE8=Aaron Tippin - There Ain't Nothin' Wrong With The Radio
TTITLE9=Randy Travis - Better Class Of Losers
TTITLE10=Tanya Tucker - Call On Me
TTITLE11=Conway Twitty - I Couldn't See You Leavin'
TTITLE12=Steve Wariner - Weekend
TTITLE13=Keith Whitley - Don't Close Your Eyes
TTITLE14=Don WIlliams - Tulsa Time
TTITLE15=Hank Williams Jr - All My Rowdy Friends Are Coming Over Tonight
TTITLE16=Alabama - Love In The First Degree
TTITLE17=John Anderson - Let Go Of The Stone
TTITLE18=Clint Black - Put Yourself In My Shoes
TTITLE19=Suzy Bogguss - Letting Go
TTITLE20=Garth Brooks - Thunder Rolls
TTITLE21=T Graham Brown - Tell It Like It Used To Be
EXTD=YEAR: 1900
EXTT0=
EXTT1=
EXTT2=
EXTT3=
EXTT4=
EXTT5=
EXTT6=
EXTT7=
EXTT8=
EXTT9=
EXTT10=
EXTT11=
EXTT12=
EXTT13=
EXTT14=
EXTT15=
EXTT16=
EXTT17=
EXTT18=
EXTT19=
EXTT20=
EXTT21=
PLAYORDER=
